# xmcd CD database file
#
# Track frame offsets:
#	150
#	19852
#	40445
#
# Disc length: 800 seconds
#
# Revision: 1
# Processed by: cddbd v1.5.1PL0 Copyright (c) Steve Scherf et al.
# Submitted via: CDex 1.51
#
DISCID=1f031e03
DTITLE=Manish - 素顔のまま KISSしよう
DYEAR=1994
DGENRE=JPop
TTITLE0=素顔のまま KISSしよう
TTITLE1=さよなら Plastic Girl
TTITLE2=素顔のまま KISSしよう (オリジナル・カラオケ)
EXTD=YEAR: 1994
EXTT0=
EXTT1=
EXTT2=
PLAYORDER=
